solid OpenSCAD_Model
  facet normal 0 -1 0
    outer loop
      vertex -54.475 -21.25 6.15
      vertex -54.475 -21.25 7.9
      vertex -55.175 -21.25 7.20001
    endloop
  endfacet
  facet normal 0 -1 0
    outer loop
      vertex -54.475 -21.25 6.15
      vertex -55.175 -21.25 7.20001
      vertex -55.175 -21.25 6.85
    endloop
  endfacet
  facet normal 0 -1 0
    outer loop
      vertex -54.475 -21.25 7.9
      vertex -54.475 -21.25 6.15
      vertex -53.475 -21.25 7.9
    endloop
  endfacet
  facet normal 0 -1 0
    outer loop
      vertex -53.475 -21.25 1.6
      vertex -54.475 -21.25 6.15
      vertex -54.475 -21.25 1.6
    endloop
  endfacet
  facet normal 0 -1 0
    outer loop
      vertex -54.475 -21.25 6.15
      vertex -53.475 -21.25 1.6
      vertex -53.475 -21.25 7.9
    endloop
  endfacet
  facet normal 0 1 0
    outer loop
      vertex -54.475 -15.25 6.15
      vertex -54.475 -15.25 7.9
      vertex -53.475 -15.25 7.9
    endloop
  endfacet
  facet normal 0 1 0
    outer loop
      vertex -54.475 -15.25 7.9
      vertex -54.475 -15.25 6.15
      vertex -55.175 -15.25 7.20001
    endloop
  endfacet
  facet normal 0 1 0
    outer loop
      vertex -55.175 -15.25 7.20001
      vertex -54.475 -15.25 6.15
      vertex -55.175 -15.25 6.85
    endloop
  endfacet
  facet normal 0 1 -0
    outer loop
      vertex -53.475 -15.25 1.6
      vertex -54.475 -15.25 6.15
      vertex -53.475 -15.25 7.9
    endloop
  endfacet
  facet normal 0 1 0
    outer loop
      vertex -54.475 -15.25 6.15
      vertex -53.475 -15.25 1.6
      vertex -54.475 -15.25 1.6
    endloop
  endfacet
  facet normal -1 0 0
    outer loop
      vertex -54.475 -21.25 1.6
      vertex -54.475 -15.25 6.15
      vertex -54.475 -15.25 1.6
    endloop
  endfacet
  facet normal -1 -0 0
    outer loop
      vertex -54.475 -15.25 6.15
      vertex -54.475 -21.25 1.6
      vertex -54.475 -21.25 6.15
    endloop
  endfacet
  facet normal -0.707107 0 -0.707107
    outer loop
      vertex -54.475 -21.25 6.15
      vertex -55.175 -15.25 6.85
      vertex -54.475 -15.25 6.15
    endloop
  endfacet
  facet normal -0.707107 -0 -0.707107
    outer loop
      vertex -55.175 -15.25 6.85
      vertex -54.475 -21.25 6.15
      vertex -55.175 -21.25 6.85
    endloop
  endfacet
  facet normal -1 0 0
    outer loop
      vertex -55.175 -21.25 6.85
      vertex -55.175 -15.25 7.20001
      vertex -55.175 -15.25 6.85
    endloop
  endfacet
  facet normal -1 -0 0
    outer loop
      vertex -55.175 -15.25 7.20001
      vertex -55.175 -21.25 6.85
      vertex -55.175 -21.25 7.20001
    endloop
  endfacet
  facet normal -0.707102 0 0.707112
    outer loop
      vertex -55.175 -21.25 7.20001
      vertex -54.475 -15.25 7.9
      vertex -55.175 -15.25 7.20001
    endloop
  endfacet
  facet normal -0.707102 0 0.707112
    outer loop
      vertex -54.475 -15.25 7.9
      vertex -55.175 -21.25 7.20001
      vertex -54.475 -21.25 7.9
    endloop
  endfacet
  facet normal -0 0 1
    outer loop
      vertex -54.475 -15.25 7.9
      vertex -53.475 -21.25 7.9
      vertex -53.475 -15.25 7.9
    endloop
  endfacet
  facet normal 0 0 1
    outer loop
      vertex -53.475 -21.25 7.9
      vertex -54.475 -15.25 7.9
      vertex -54.475 -21.25 7.9
    endloop
  endfacet
  facet normal 1 -0 0
    outer loop
      vertex -53.475 -21.25 7.9
      vertex -53.475 -15.25 1.6
      vertex -53.475 -15.25 7.9
    endloop
  endfacet
  facet normal 1 0 0
    outer loop
      vertex -53.475 -15.25 1.6
      vertex -53.475 -21.25 7.9
      vertex -53.475 -21.25 1.6
    endloop
  endfacet
  facet normal 0 -1 0
    outer loop
      vertex -54.475 -36.35 6.15
      vertex -54.475 -36.35 7.9
      vertex -55.175 -36.35 7.20001
    endloop
  endfacet
  facet normal 0 -1 0
    outer loop
      vertex -54.475 -36.35 6.15
      vertex -55.175 -36.35 7.20001
      vertex -55.175 -36.35 6.85
    endloop
  endfacet
  facet normal 0 -1 0
    outer loop
      vertex -54.475 -36.35 7.9
      vertex -54.475 -36.35 6.15
      vertex -53.475 -36.35 7.9
    endloop
  endfacet
  facet normal 0 -1 0
    outer loop
      vertex -53.475 -36.35 1.6
      vertex -54.475 -36.35 6.15
      vertex -54.475 -36.35 1.6
    endloop
  endfacet
  facet normal 0 -1 0
    outer loop
      vertex -54.475 -36.35 6.15
      vertex -53.475 -36.35 1.6
      vertex -53.475 -36.35 7.9
    endloop
  endfacet
  facet normal 0 1 0
    outer loop
      vertex -54.475 -33.35 6.15
      vertex -54.475 -33.35 7.9
      vertex -53.475 -33.35 7.9
    endloop
  endfacet
  facet normal 0 1 0
    outer loop
      vertex -54.475 -33.35 7.9
      vertex -54.475 -33.35 6.15
      vertex -55.175 -33.35 7.20001
    endloop
  endfacet
  facet normal 0 1 0
    outer loop
      vertex -55.175 -33.35 7.20001
      vertex -54.475 -33.35 6.15
      vertex -55.175 -33.35 6.85
    endloop
  endfacet
  facet normal 0 1 -0
    outer loop
      vertex -53.475 -33.35 1.6
      vertex -54.475 -33.35 6.15
      vertex -53.475 -33.35 7.9
    endloop
  endfacet
  facet normal 0 1 0
    outer loop
      vertex -54.475 -33.35 6.15
      vertex -53.475 -33.35 1.6
      vertex -54.475 -33.35 1.6
    endloop
  endfacet
  facet normal -1 0 0
    outer loop
      vertex -54.475 -36.35 1.6
      vertex -54.475 -33.35 6.15
      vertex -54.475 -33.35 1.6
    endloop
  endfacet
  facet normal -1 -0 0
    outer loop
      vertex -54.475 -33.35 6.15
      vertex -54.475 -36.35 1.6
      vertex -54.475 -36.35 6.15
    endloop
  endfacet
  facet normal -0.707107 0 -0.707107
    outer loop
      vertex -54.475 -36.35 6.15
      vertex -55.175 -33.35 6.85
      vertex -54.475 -33.35 6.15
    endloop
  endfacet
  facet normal -0.707107 -0 -0.707107
    outer loop
      vertex -55.175 -33.35 6.85
      vertex -54.475 -36.35 6.15
      vertex -55.175 -36.35 6.85
    endloop
  endfacet
  facet normal -1 0 0
    outer loop
      vertex -55.175 -36.35 6.85
      vertex -55.175 -33.35 7.20001
      vertex -55.175 -33.35 6.85
    endloop
  endfacet
  facet normal -1 -0 0
    outer loop
      vertex -55.175 -33.35 7.20001
      vertex -55.175 -36.35 6.85
      vertex -55.175 -36.35 7.20001
    endloop
  endfacet
  facet normal -0.707102 0 0.707112
    outer loop
      vertex -55.175 -36.35 7.20001
      vertex -54.475 -33.35 7.9
      vertex -55.175 -33.35 7.20001
    endloop
  endfacet
  facet normal -0.707102 0 0.707112
    outer loop
      vertex -54.475 -33.35 7.9
      vertex -55.175 -36.35 7.20001
      vertex -54.475 -36.35 7.9
    endloop
  endfacet
  facet normal -0 0 1
    outer loop
      vertex -54.475 -33.35 7.9
      vertex -53.475 -36.35 7.9
      vertex -53.475 -33.35 7.9
    endloop
  endfacet
  facet normal 0 0 1
    outer loop
      vertex -53.475 -36.35 7.9
      vertex -54.475 -33.35 7.9
      vertex -54.475 -36.35 7.9
    endloop
  endfacet
  facet normal 1 -0 0
    outer loop
      vertex -53.475 -36.35 7.9
      vertex -53.475 -33.35 1.6
      vertex -53.475 -33.35 7.9
    endloop
  endfacet
  facet normal 1 0 0
    outer loop
      vertex -53.475 -33.35 1.6
      vertex -53.475 -36.35 7.9
      vertex -53.475 -36.35 1.6
    endloop
  endfacet
  facet normal 0 -1 0
    outer loop
      vertex -77.525 -21.25 6.15
      vertex -77.525 -21.25 7.9
      vertex -78.525 -21.25 7.9
    endloop
  endfacet
  facet normal 0 -1 0
    outer loop
      vertex -77.525 -21.25 7.9
      vertex -77.525 -21.25 6.15
      vertex -76.825 -21.25 7.20001
    endloop
  endfacet
  facet normal 0 -1 -0
    outer loop
      vertex -76.825 -21.25 7.20001
      vertex -77.525 -21.25 6.15
      vertex -76.825 -21.25 6.85
    endloop
  endfacet
  facet normal 0 -1 0
    outer loop
      vertex -78.525 -21.25 1.6
      vertex -77.525 -21.25 6.15
      vertex -78.525 -21.25 7.9
    endloop
  endfacet
  facet normal 0 -1 -0
    outer loop
      vertex -77.525 -21.25 6.15
      vertex -78.525 -21.25 1.6
      vertex -77.525 -21.25 1.6
    endloop
  endfacet
  facet normal 0 1 0
    outer loop
      vertex -77.525 -15.25 6.15
      vertex -77.525 -15.25 7.9
      vertex -76.825 -15.25 7.20001
    endloop
  endfacet
  facet normal 0 1 0
    outer loop
      vertex -77.525 -15.25 6.15
      vertex -76.825 -15.25 7.20001
      vertex -76.825 -15.25 6.85
    endloop
  endfacet
  facet normal 0 1 0
    outer loop
      vertex -77.525 -15.25 7.9
      vertex -77.525 -15.25 6.15
      vertex -78.525 -15.25 7.9
    endloop
  endfacet
  facet normal 0 1 0
    outer loop
      vertex -78.525 -15.25 1.6
      vertex -77.525 -15.25 6.15
      vertex -77.525 -15.25 1.6
    endloop
  endfacet
  facet normal 0 1 0
    outer loop
      vertex -77.525 -15.25 6.15
      vertex -78.525 -15.25 1.6
      vertex -78.525 -15.25 7.9
    endloop
  endfacet
  facet normal 1 -0 0
    outer loop
      vertex -77.525 -21.25 6.15
      vertex -77.525 -15.25 1.6
      vertex -77.525 -15.25 6.15
    endloop
  endfacet
  facet normal 1 0 0
    outer loop
      vertex -77.525 -15.25 1.6
      vertex -77.525 -21.25 6.15
      vertex -77.525 -21.25 1.6
    endloop
  endfacet
  facet normal 0.707107 0 -0.707107
    outer loop
      vertex -76.825 -21.25 6.85
      vertex -77.525 -15.25 6.15
      vertex -76.825 -15.25 6.85
    endloop
  endfacet
  facet normal 0.707107 0 -0.707107
    outer loop
      vertex -77.525 -15.25 6.15
      vertex -76.825 -21.25 6.85
      vertex -77.525 -21.25 6.15
    endloop
  endfacet
  facet normal 1 -0 0
    outer loop
      vertex -76.825 -21.25 7.20001
      vertex -76.825 -15.25 6.85
      vertex -76.825 -15.25 7.20001
    endloop
  endfacet
  facet normal 1 0 0
    outer loop
      vertex -76.825 -15.25 6.85
      vertex -76.825 -21.25 7.20001
      vertex -76.825 -21.25 6.85
    endloop
  endfacet
  facet normal 0.707102 -0 0.707112
    outer loop
      vertex -77.525 -21.25 7.9
      vertex -76.825 -15.25 7.20001
      vertex -77.525 -15.25 7.9
    endloop
  endfacet
  facet normal 0.707102 0 0.707112
    outer loop
      vertex -76.825 -15.25 7.20001
      vertex -77.525 -21.25 7.9
      vertex -76.825 -21.25 7.20001
    endloop
  endfacet
  facet normal -0 0 1
    outer loop
      vertex -78.525 -15.25 7.9
      vertex -77.525 -21.25 7.9
      vertex -77.525 -15.25 7.9
    endloop
  endfacet
  facet normal 0 0 1
    outer loop
      vertex -77.525 -21.25 7.9
      vertex -78.525 -15.25 7.9
      vertex -78.525 -21.25 7.9
    endloop
  endfacet
  facet normal -1 0 0
    outer loop
      vertex -78.525 -21.25 1.6
      vertex -78.525 -15.25 7.9
      vertex -78.525 -15.25 1.6
    endloop
  endfacet
  facet normal -1 -0 0
    outer loop
      vertex -78.525 -15.25 7.9
      vertex -78.525 -21.25 1.6
      vertex -78.525 -21.25 7.9
    endloop
  endfacet
  facet normal 0 -1 0
    outer loop
      vertex -77.525 -36.35 6.15
      vertex -77.525 -36.35 7.9
      vertex -78.525 -36.35 7.9
    endloop
  endfacet
  facet normal 0 -1 0
    outer loop
      vertex -77.525 -36.35 7.9
      vertex -77.525 -36.35 6.15
      vertex -76.825 -36.35 7.20001
    endloop
  endfacet
  facet normal 0 -1 -0
    outer loop
      vertex -76.825 -36.35 7.20001
      vertex -77.525 -36.35 6.15
      vertex -76.825 -36.35 6.85
    endloop
  endfacet
  facet normal 0 -1 0
    outer loop
      vertex -78.525 -36.35 1.6
      vertex -77.525 -36.35 6.15
      vertex -78.525 -36.35 7.9
    endloop
  endfacet
  facet normal 0 -1 -0
    outer loop
      vertex -77.525 -36.35 6.15
      vertex -78.525 -36.35 1.6
      vertex -77.525 -36.35 1.6
    endloop
  endfacet
  facet normal 0 1 0
    outer loop
      vertex -77.525 -33.35 6.15
      vertex -77.525 -33.35 7.9
      vertex -76.825 -33.35 7.20001
    endloop
  endfacet
  facet normal 0 1 0
    outer loop
      vertex -77.525 -33.35 6.15
      vertex -76.825 -33.35 7.20001
      vertex -76.825 -33.35 6.85
    endloop
  endfacet
  facet normal 0 1 0
    outer loop
      vertex -77.525 -33.35 7.9
      vertex -77.525 -33.35 6.15
      vertex -78.525 -33.35 7.9
    endloop
  endfacet
  facet normal 0 1 0
    outer loop
      vertex -78.525 -33.35 1.6
      vertex -77.525 -33.35 6.15
      vertex -77.525 -33.35 1.6
    endloop
  endfacet
  facet normal 0 1 0
    outer loop
      vertex -77.525 -33.35 6.15
      vertex -78.525 -33.35 1.6
      vertex -78.525 -33.35 7.9
    endloop
  endfacet
  facet normal 1 -0 0
    outer loop
      vertex -77.525 -36.35 6.15
      vertex -77.525 -33.35 1.6
      vertex -77.525 -33.35 6.15
    endloop
  endfacet
  facet normal 1 0 0
    outer loop
      vertex -77.525 -33.35 1.6
      vertex -77.525 -36.35 6.15
      vertex -77.525 -36.35 1.6
    endloop
  endfacet
  facet normal 0.707107 0 -0.707107
    outer loop
      vertex -76.825 -36.35 6.85
      vertex -77.525 -33.35 6.15
      vertex -76.825 -33.35 6.85
    endloop
  endfacet
  facet normal 0.707107 0 -0.707107
    outer loop
      vertex -77.525 -33.35 6.15
      vertex -76.825 -36.35 6.85
      vertex -77.525 -36.35 6.15
    endloop
  endfacet
  facet normal 1 -0 0
    outer loop
      vertex -76.825 -36.35 7.20001
      vertex -76.825 -33.35 6.85
      vertex -76.825 -33.35 7.20001
    endloop
  endfacet
  facet normal 1 0 0
    outer loop
      vertex -76.825 -33.35 6.85
      vertex -76.825 -36.35 7.20001
      vertex -76.825 -36.35 6.85
    endloop
  endfacet
  facet normal 0.707102 -0 0.707112
    outer loop
      vertex -77.525 -36.35 7.9
      vertex -76.825 -33.35 7.20001
      vertex -77.525 -33.35 7.9
    endloop
  endfacet
  facet normal 0.707102 0 0.707112
    outer loop
      vertex -76.825 -33.35 7.20001
      vertex -77.525 -36.35 7.9
      vertex -76.825 -36.35 7.20001
    endloop
  endfacet
  facet normal -0 0 1
    outer loop
      vertex -78.525 -33.35 7.9
      vertex -77.525 -36.35 7.9
      vertex -77.525 -33.35 7.9
    endloop
  endfacet
  facet normal 0 0 1
    outer loop
      vertex -77.525 -36.35 7.9
      vertex -78.525 -33.35 7.9
      vertex -78.525 -36.35 7.9
    endloop
  endfacet
  facet normal -1 0 0
    outer loop
      vertex -78.525 -36.35 1.6
      vertex -78.525 -33.35 7.9
      vertex -78.525 -33.35 1.6
    endloop
  endfacet
  facet normal -1 -0 0
    outer loop
      vertex -78.525 -33.35 7.9
      vertex -78.525 -36.35 1.6
      vertex -78.525 -36.35 7.9
    endloop
  endfacet
  facet normal 1 -0 0
    outer loop
      vertex -60.325 -33.05 1.6
      vertex -60.325 -22.25 5.72205e-07
      vertex -60.325 -22.25 1.6
    endloop
  endfacet
  facet normal 1 0 0
    outer loop
      vertex -60.325 -22.25 5.72205e-07
      vertex -60.325 -33.05 1.6
      vertex -60.325 -33.05 5.72205e-07
    endloop
  endfacet
  facet normal 0 0 -1
    outer loop
      vertex -53.475 -36.65 5.72205e-07
      vertex -60.325 -33.05 5.72205e-07
      vertex -53.475 -33.05 5.72205e-07
    endloop
  endfacet
  facet normal 0 0 -1
    outer loop
      vertex -60.325 -33.05 5.72205e-07
      vertex -71.675 -33.05 5.72205e-07
      vertex -60.325 -22.25 5.72205e-07
    endloop
  endfacet
  facet normal 0 0 -1
    outer loop
      vertex -53.475 -36.65 5.72205e-07
      vertex -71.675 -33.05 5.72205e-07
      vertex -60.325 -33.05 5.72205e-07
    endloop
  endfacet
  facet normal 0 0 -1
    outer loop
      vertex -78.525 -36.65 5.72205e-07
      vertex -71.675 -33.05 5.72205e-07
      vertex -53.475 -36.65 5.72205e-07
    endloop
  endfacet
  facet normal -0 0 -1
    outer loop
      vertex -71.675 -33.05 5.72205e-07
      vertex -78.525 -36.65 5.72205e-07
      vertex -78.525 -33.05 5.72205e-07
    endloop
  endfacet
  facet normal 0 0 -1
    outer loop
      vertex -60.325 -22.25 5.72205e-07
      vertex -53.475 -12.1 5.72205e-07
      vertex -53.475 -22.25 5.72205e-07
    endloop
  endfacet
  facet normal 0 0 -1
    outer loop
      vertex -71.675 -22.25 5.72205e-07
      vertex -60.325 -22.25 5.72205e-07
      vertex -71.675 -33.05 5.72205e-07
    endloop
  endfacet
  facet normal 0 0 -1
    outer loop
      vertex -60.325 -22.25 5.72205e-07
      vertex -71.675 -22.25 5.72205e-07
      vertex -53.475 -12.1 5.72205e-07
    endloop
  endfacet
  facet normal 0 0 -1
    outer loop
      vertex -78.525 -12.1 5.72205e-07
      vertex -71.675 -22.25 5.72205e-07
      vertex -78.525 -22.25 5.72205e-07
    endloop
  endfacet
  facet normal 0 0 -1
    outer loop
      vertex -71.675 -22.25 5.72205e-07
      vertex -78.525 -12.1 5.72205e-07
      vertex -53.475 -12.1 5.72205e-07
    endloop
  endfacet
  facet normal -0 0 1
    outer loop
      vertex -78.525 -33.05 1.6
      vertex -77.525 -33.35 1.6
      vertex -71.675 -33.05 1.6
    endloop
  endfacet
  facet normal 0 0 -0
    outer loop
      vertex -78.525 -33.35 1.6
      vertex -78.525 -33.05 1.6
      vertex -78.525 -36.35 1.6
    endloop
  endfacet
  facet normal 0 0 1
    outer loop
      vertex -77.525 -33.35 1.6
      vertex -78.525 -33.05 1.6
      vertex -78.525 -33.35 1.6
    endloop
  endfacet
  facet normal 0 0 0
    outer loop
      vertex -53.475 -12.1 1.6
      vertex -53.475 -15.25 1.6
      vertex -53.475 -22.25 1.6
    endloop
  endfacet
  facet normal 0 0 1
    outer loop
      vertex -53.475 -12.1 1.6
      vertex -54.475 -15.25 1.6
      vertex -53.475 -15.25 1.6
    endloop
  endfacet
  facet normal -0 0 1
    outer loop
      vertex -60.625 -20.4 1.6
      vertex -54.475 -21.25 1.6
      vertex -54.475 -15.25 1.6
    endloop
  endfacet
  facet normal -0 0 1
    outer loop
      vertex -60.625 -14.4 1.6
      vertex -54.475 -15.25 1.6
      vertex -53.475 -12.1 1.6
    endloop
  endfacet
  facet normal 0 0 1
    outer loop
      vertex -54.475 -21.25 1.6
      vertex -60.625 -20.4 1.6
      vertex -60.325 -22.25 1.6
    endloop
  endfacet
  facet normal 0 0 1
    outer loop
      vertex -54.475 -15.25 1.6
      vertex -60.625 -14.4 1.6
      vertex -60.625 -20.4 1.6
    endloop
  endfacet
  facet normal 0 0 1
    outer loop
      vertex -53.475 -12.1 1.6
      vertex -71.375 -14.4 1.6
      vertex -60.625 -14.4 1.6
    endloop
  endfacet
  facet normal -0 0 1
    outer loop
      vertex -77.525 -15.25 1.6
      vertex -71.375 -20.4 1.6
      vertex -71.375 -14.4 1.6
    endloop
  endfacet
  facet normal 0 0 1
    outer loop
      vertex -77.525 -21.25 1.6
      vertex -71.375 -20.4 1.6
      vertex -77.525 -15.25 1.6
    endloop
  endfacet
  facet normal 0 0 1
    outer loop
      vertex -78.525 -12.1 1.6
      vertex -77.525 -15.25 1.6
      vertex -71.375 -14.4 1.6
    endloop
  endfacet
  facet normal -0 0 1
    outer loop
      vertex -78.525 -12.1 1.6
      vertex -71.375 -14.4 1.6
      vertex -53.475 -12.1 1.6
    endloop
  endfacet
  facet normal 0 0 -0
    outer loop
      vertex -78.525 -15.25 1.6
      vertex -78.525 -12.1 1.6
      vertex -78.525 -21.25 1.6
    endloop
  endfacet
  facet normal 0 0 1
    outer loop
      vertex -77.525 -15.25 1.6
      vertex -78.525 -12.1 1.6
      vertex -78.525 -15.25 1.6
    endloop
  endfacet
  facet normal -0 0 0
    outer loop
      vertex -53.475 -21.25 1.6
      vertex -53.475 -22.25 1.6
      vertex -53.475 -15.25 1.6
    endloop
  endfacet
  facet normal -0 0 1
    outer loop
      vertex -54.475 -21.25 1.6
      vertex -53.475 -22.25 1.6
      vertex -53.475 -21.25 1.6
    endloop
  endfacet
  facet normal 0 0 1
    outer loop
      vertex -53.475 -22.25 1.6
      vertex -54.475 -21.25 1.6
      vertex -60.325 -22.25 1.6
    endloop
  endfacet
  facet normal 0 0 1
    outer loop
      vertex -71.375 -20.4 1.6
      vertex -77.525 -21.25 1.6
      vertex -71.675 -22.25 1.6
    endloop
  endfacet
  facet normal 0 0 1
    outer loop
      vertex -78.525 -22.25 1.6
      vertex -77.525 -21.25 1.6
      vertex -78.525 -21.25 1.6
    endloop
  endfacet
  facet normal 0 0 1
    outer loop
      vertex -77.525 -21.25 1.6
      vertex -78.525 -22.25 1.6
      vertex -71.675 -22.25 1.6
    endloop
  endfacet
  facet normal 0 0 0
    outer loop
      vertex -78.525 -22.25 1.6
      vertex -78.525 -21.25 1.6
      vertex -78.525 -12.1 1.6
    endloop
  endfacet
  facet normal 0 0 0
    outer loop
      vertex -53.475 -33.05 1.6
      vertex -53.475 -33.35 1.6
      vertex -53.475 -36.65 1.6
    endloop
  endfacet
  facet normal 0 0 1
    outer loop
      vertex -53.475 -33.05 1.6
      vertex -54.475 -33.35 1.6
      vertex -53.475 -33.35 1.6
    endloop
  endfacet
  facet normal 0 0 1
    outer loop
      vertex -54.475 -33.35 1.6
      vertex -60.325 -33.05 1.6
      vertex -54.475 -36.35 1.6
    endloop
  endfacet
  facet normal -0 0 1
    outer loop
      vertex -60.325 -33.05 1.6
      vertex -54.475 -33.35 1.6
      vertex -53.475 -33.05 1.6
    endloop
  endfacet
  facet normal -0 0 0
    outer loop
      vertex -53.475 -36.35 1.6
      vertex -53.475 -36.65 1.6
      vertex -53.475 -33.35 1.6
    endloop
  endfacet
  facet normal -0 0 1
    outer loop
      vertex -54.475 -36.35 1.6
      vertex -53.475 -36.65 1.6
      vertex -53.475 -36.35 1.6
    endloop
  endfacet
  facet normal 0 0 1
    outer loop
      vertex -71.675 -22.25 1.6
      vertex -60.325 -22.25 1.6
      vertex -60.625 -20.4 1.6
    endloop
  endfacet
  facet normal 0 0 1
    outer loop
      vertex -71.675 -22.25 1.6
      vertex -60.625 -20.4 1.6
      vertex -71.375 -20.4 1.6
    endloop
  endfacet
  facet normal 0 0 1
    outer loop
      vertex -60.325 -22.25 1.6
      vertex -71.675 -22.25 1.6
      vertex -60.325 -33.05 1.6
    endloop
  endfacet
  facet normal 0 0 1
    outer loop
      vertex -71.675 -33.05 1.6
      vertex -60.325 -33.05 1.6
      vertex -71.675 -22.25 1.6
    endloop
  endfacet
  facet normal -0 0 1
    outer loop
      vertex -71.675 -33.05 1.6
      vertex -54.475 -36.35 1.6
      vertex -60.325 -33.05 1.6
    endloop
  endfacet
  facet normal 0 0 1
    outer loop
      vertex -77.525 -36.35 1.6
      vertex -54.475 -36.35 1.6
      vertex -71.675 -33.05 1.6
    endloop
  endfacet
  facet normal 0 0 1
    outer loop
      vertex -77.525 -36.35 1.6
      vertex -71.675 -33.05 1.6
      vertex -77.525 -33.35 1.6
    endloop
  endfacet
  facet normal 0 0 1
    outer loop
      vertex -54.475 -36.35 1.6
      vertex -77.525 -36.35 1.6
      vertex -53.475 -36.65 1.6
    endloop
  endfacet
  facet normal 0 0 1
    outer loop
      vertex -78.525 -36.65 1.6
      vertex -77.525 -36.35 1.6
      vertex -78.525 -36.35 1.6
    endloop
  endfacet
  facet normal 0 0 1
    outer loop
      vertex -77.525 -36.35 1.6
      vertex -78.525 -36.65 1.6
      vertex -53.475 -36.65 1.6
    endloop
  endfacet
  facet normal 0 0 0
    outer loop
      vertex -78.525 -36.65 1.6
      vertex -78.525 -36.35 1.6
      vertex -78.525 -33.05 1.6
    endloop
  endfacet
  facet normal -1 0 0
    outer loop
      vertex -71.675 -33.05 5.72205e-07
      vertex -71.675 -22.25 1.6
      vertex -71.675 -22.25 5.72205e-07
    endloop
  endfacet
  facet normal -1 -0 0
    outer loop
      vertex -71.675 -22.25 1.6
      vertex -71.675 -33.05 5.72205e-07
      vertex -71.675 -33.05 1.6
    endloop
  endfacet
  facet normal 0 -1 0
    outer loop
      vertex -78.525 -36.65 5.72205e-07
      vertex -53.475 -36.65 1.6
      vertex -78.525 -36.65 1.6
    endloop
  endfacet
  facet normal 0 -1 -0
    outer loop
      vertex -53.475 -36.65 1.6
      vertex -78.525 -36.65 5.72205e-07
      vertex -53.475 -36.65 5.72205e-07
    endloop
  endfacet
  facet normal 0 1 -0
    outer loop
      vertex -53.475 -12.1 5.72205e-07
      vertex -78.525 -12.1 1.6
      vertex -53.475 -12.1 1.6
    endloop
  endfacet
  facet normal 0 1 0
    outer loop
      vertex -78.525 -12.1 1.6
      vertex -53.475 -12.1 5.72205e-07
      vertex -78.525 -12.1 5.72205e-07
    endloop
  endfacet
  facet normal 1 -0 0
    outer loop
      vertex -53.475 -22.25 1.6
      vertex -53.475 -12.1 5.72205e-07
      vertex -53.475 -12.1 1.6
    endloop
  endfacet
  facet normal 1 0 0
    outer loop
      vertex -53.475 -12.1 5.72205e-07
      vertex -53.475 -22.25 1.6
      vertex -53.475 -22.25 5.72205e-07
    endloop
  endfacet
  facet normal -1 0 0
    outer loop
      vertex -78.525 -22.25 5.72205e-07
      vertex -78.525 -12.1 1.6
      vertex -78.525 -12.1 5.72205e-07
    endloop
  endfacet
  facet normal -1 -0 0
    outer loop
      vertex -78.525 -12.1 1.6
      vertex -78.525 -22.25 5.72205e-07
      vertex -78.525 -22.25 1.6
    endloop
  endfacet
  facet normal 0 -1 0
    outer loop
      vertex -78.525 -22.25 5.72205e-07
      vertex -71.675 -22.25 1.6
      vertex -78.525 -22.25 1.6
    endloop
  endfacet
  facet normal 0 -1 -0
    outer loop
      vertex -71.675 -22.25 1.6
      vertex -78.525 -22.25 5.72205e-07
      vertex -71.675 -22.25 5.72205e-07
    endloop
  endfacet
  facet normal 0 -1 0
    outer loop
      vertex -60.325 -22.25 5.72205e-07
      vertex -53.475 -22.25 1.6
      vertex -60.325 -22.25 1.6
    endloop
  endfacet
  facet normal 0 -1 -0
    outer loop
      vertex -53.475 -22.25 1.6
      vertex -60.325 -22.25 5.72205e-07
      vertex -53.475 -22.25 5.72205e-07
    endloop
  endfacet
  facet normal 1 -0 0
    outer loop
      vertex -53.475 -36.65 1.6
      vertex -53.475 -33.05 5.72205e-07
      vertex -53.475 -33.05 1.6
    endloop
  endfacet
  facet normal 1 0 0
    outer loop
      vertex -53.475 -33.05 5.72205e-07
      vertex -53.475 -36.65 1.6
      vertex -53.475 -36.65 5.72205e-07
    endloop
  endfacet
  facet normal -1 0 0
    outer loop
      vertex -78.525 -36.65 5.72205e-07
      vertex -78.525 -33.05 1.6
      vertex -78.525 -33.05 5.72205e-07
    endloop
  endfacet
  facet normal -1 -0 0
    outer loop
      vertex -78.525 -33.05 1.6
      vertex -78.525 -36.65 5.72205e-07
      vertex -78.525 -36.65 1.6
    endloop
  endfacet
  facet normal 0 1 -0
    outer loop
      vertex -71.675 -33.05 5.72205e-07
      vertex -78.525 -33.05 1.6
      vertex -71.675 -33.05 1.6
    endloop
  endfacet
  facet normal 0 1 0
    outer loop
      vertex -78.525 -33.05 1.6
      vertex -71.675 -33.05 5.72205e-07
      vertex -78.525 -33.05 5.72205e-07
    endloop
  endfacet
  facet normal 0 1 -0
    outer loop
      vertex -53.475 -33.05 5.72205e-07
      vertex -60.325 -33.05 1.6
      vertex -53.475 -33.05 1.6
    endloop
  endfacet
  facet normal 0 1 0
    outer loop
      vertex -60.325 -33.05 1.6
      vertex -53.475 -33.05 5.72205e-07
      vertex -60.325 -33.05 5.72205e-07
    endloop
  endfacet
  facet normal 1 -0 0
    outer loop
      vertex -60.625 -20.4 3.73
      vertex -60.625 -14.4 1.6
      vertex -60.625 -14.4 3.73
    endloop
  endfacet
  facet normal 1 0 0
    outer loop
      vertex -60.625 -14.4 1.6
      vertex -60.625 -20.4 3.73
      vertex -60.625 -20.4 1.6
    endloop
  endfacet
  facet normal -0 0 1
    outer loop
      vertex -71.375 -14.4 3.73
      vertex -60.625 -20.4 3.73
      vertex -60.625 -14.4 3.73
    endloop
  endfacet
  facet normal 0 0 1
    outer loop
      vertex -60.625 -20.4 3.73
      vertex -71.375 -14.4 3.73
      vertex -71.375 -20.4 3.73
    endloop
  endfacet
  facet normal -1 0 0
    outer loop
      vertex -71.375 -20.4 1.6
      vertex -71.375 -14.4 3.73
      vertex -71.375 -14.4 1.6
    endloop
  endfacet
  facet normal -1 -0 0
    outer loop
      vertex -71.375 -14.4 3.73
      vertex -71.375 -20.4 1.6
      vertex -71.375 -20.4 3.73
    endloop
  endfacet
  facet normal 0 -1 0
    outer loop
      vertex -71.375 -20.4 1.6
      vertex -60.625 -20.4 3.73
      vertex -71.375 -20.4 3.73
    endloop
  endfacet
  facet normal 0 -1 -0
    outer loop
      vertex -60.625 -20.4 3.73
      vertex -71.375 -20.4 1.6
      vertex -60.625 -20.4 1.6
    endloop
  endfacet
  facet normal 0 1 -0
    outer loop
      vertex -60.625 -14.4 1.6
      vertex -71.375 -14.4 3.73
      vertex -60.625 -14.4 3.73
    endloop
  endfacet
  facet normal 0 1 0
    outer loop
      vertex -71.375 -14.4 3.73
      vertex -60.625 -14.4 1.6
      vertex -71.375 -14.4 1.6
    endloop
  endfacet
endsolid OpenSCAD_Model
